<svg width="25" height="25" viewBox="0 0 25 25" fill="none" xmlns="http://www.w3.org/2000/svg">
<path fill-rule="evenodd" clip-rule="evenodd" d="M7.7626 3.64962C7.88219 2.5196 8.83828 1.63916 10 1.63916H15C16.1617 1.63916 17.1178 2.5196 17.2374 3.64962C18.0005 3.66515 18.6603 3.70462 19.2236 3.80811C19.9816 3.94734 20.6267 4.21258 21.1517 4.73751C21.7536 5.33943 22.0125 6.0973 22.1335 6.99741C22.25 7.86438 22.25 8.9667 22.25 10.3343V16.444C22.25 17.8116 22.25 18.9139 22.1335 19.7809C22.0125 20.681 21.7536 21.4389 21.1517 22.0408C20.5497 22.6427 19.7919 22.9016 18.8918 23.0226C18.0248 23.1392 16.9225 23.1392 15.5549 23.1392H9.44513C8.07754 23.1392 6.97522 23.1392 6.10825 23.0226C5.20814 22.9016 4.45027 22.6427 3.84835 22.0408C3.24643 21.4389 2.98754 20.681 2.86652 19.7809C2.74996 18.9139 2.74998 17.8116 2.75 16.444V10.3343C2.74998 8.9667 2.74996 7.86438 2.86652 6.99741C2.98754 6.0973 3.24643 5.33943 3.84835 4.73751C4.37328 4.21258 5.01835 3.94734 5.77635 3.80811C6.33972 3.70462 6.99952 3.66515 7.7626 3.64962ZM7.76496 5.15003C7.04678 5.16536 6.49336 5.2015 6.04735 5.28342C5.48054 5.38754 5.15246 5.55472 4.90901 5.79817C4.63225 6.07493 4.4518 6.46351 4.35315 7.19728C4.25159 7.95263 4.25 8.95375 4.25 10.3892V16.3892C4.25 17.8246 4.25159 18.8257 4.35315 19.581C4.4518 20.3148 4.63225 20.7034 4.90901 20.9802C5.18577 21.2569 5.57435 21.4374 6.30812 21.536C7.06347 21.6376 8.06458 21.6392 9.5 21.6392H15.5C16.9354 21.6392 17.9365 21.6376 18.6919 21.536C19.4257 21.4374 19.8142 21.2569 20.091 20.9802C20.3678 20.7034 20.5482 20.3148 20.6469 19.581C20.7484 18.8257 20.75 17.8246 20.75 16.3892V10.3892C20.75 8.95374 20.7484 7.95263 20.6469 7.19728C20.5482 6.46351 20.3678 6.07493 20.091 5.79817C19.8475 5.55472 19.5195 5.38754 18.9527 5.28342C18.5066 5.2015 17.9532 5.16536 17.235 5.15003C17.1058 6.26978 16.1544 7.13916 15 7.13916H10C8.84559 7.13916 7.89424 6.26978 7.76496 5.15003ZM10 3.13916C9.58579 3.13916 9.25 3.47495 9.25 3.88916V4.88916C9.25 5.30337 9.58579 5.63916 10 5.63916H15C15.4142 5.63916 15.75 5.30337 15.75 4.88916V3.88916C15.75 3.47495 15.4142 3.13916 15 3.13916H10ZM6.75 10.8892C6.75 10.4749 7.08579 10.1392 7.5 10.1392H8C8.41421 10.1392 8.75 10.4749 8.75 10.8892C8.75 11.3034 8.41421 11.6392 8 11.6392H7.5C7.08579 11.6392 6.75 11.3034 6.75 10.8892ZM10.25 10.8892C10.25 10.4749 10.5858 10.1392 11 10.1392H17.5C17.9142 10.1392 18.25 10.4749 18.25 10.8892C18.25 11.3034 17.9142 11.6392 17.5 11.6392H11C10.5858 11.6392 10.25 11.3034 10.25 10.8892ZM6.75 14.3892C6.75 13.9749 7.08579 13.6392 7.5 13.6392H8C8.41421 13.6392 8.75 13.9749 8.75 14.3892C8.75 14.8034 8.41421 15.1392 8 15.1392H7.5C7.08579 15.1392 6.75 14.8034 6.75 14.3892ZM10.25 14.3892C10.25 13.9749 10.5858 13.6392 11 13.6392H17.5C17.9142 13.6392 18.25 13.9749 18.25 14.3892C18.25 14.8034 17.9142 15.1392 17.5 15.1392H11C10.5858 15.1392 10.25 14.8034 10.25 14.3892ZM6.75 17.8892C6.75 17.4749 7.08579 17.1392 7.5 17.1392H8C8.41421 17.1392 8.75 17.4749 8.75 17.8892C8.75 18.3034 8.41421 18.6392 8 18.6392H7.5C7.08579 18.6392 6.75 18.3034 6.75 17.8892ZM10.25 17.8892C10.25 17.4749 10.5858 17.1392 11 17.1392H17.5C17.9142 17.1392 18.25 17.4749 18.25 17.8892C18.25 18.3034 17.9142 18.6392 17.5 18.6392H11C10.5858 18.6392 10.25 18.3034 10.25 17.8892Z" fill="black"/>
</svg>
