<svg width="23" height="23" viewBox="0 0 23 23" fill="none" xmlns="http://www.w3.org/2000/svg">
<path d="M16.9413 8.03922C16.9413 6.55713 16.3525 5.13574 15.3045 4.08775C14.2565 3.03975 12.8351 2.45099 11.3531 2.45099C9.87096 2.45099 8.44957 3.03975 7.40158 4.08775C6.35358 5.13574 5.76482 6.55713 5.76482 8.03922C5.76482 14.5588 2.9707 16.4216 2.9707 16.4216H19.7354C19.7354 16.4216 16.9413 14.5588 16.9413 8.03922Z" stroke="#040453" stroke-width="1.76471" stroke-linecap="round" stroke-linejoin="round"/>
<path d="M12.9628 20.1471C12.799 20.4293 12.564 20.6637 12.2812 20.8265C11.9984 20.9894 11.6778 21.0751 11.3515 21.0751C11.0252 21.0751 10.7046 20.9894 10.4218 20.8265C10.139 20.6637 9.90398 20.4293 9.74023 20.1471" stroke="#040453" stroke-width="1.76471" stroke-linecap="round" stroke-linejoin="round"/>
</svg>
