<svg width="24" height="24" viewBox="0 0 24 24" fill="none" xmlns="http://www.w3.org/2000/svg">
<path d="M10.0828 22.0093C10.0828 23.067 9.2249 23.9261 8.16644 23.9261C7.10875 23.9261 6.24963 23.067 6.24963 22.0093C6.24963 20.9498 7.10875 20.0925 8.16644 20.0925C9.2249 20.0925 10.0828 20.9498 10.0828 22.0093Z" fill="white"/>
<path d="M18.7078 22.0093C18.7078 23.067 17.8499 23.9261 16.7914 23.9261C15.7328 23.9261 14.8746 23.067 14.8746 22.0093C14.8746 20.9498 15.7328 20.0925 16.7914 20.0925C17.8499 20.0925 18.7078 20.9498 18.7078 22.0093Z" fill="white"/>
<path d="M23.4998 4.75965H4.93864L4.63281 2.81877C4.46817 1.77797 3.47126 0.926453 2.4168 0.926453H0.5V2.84285H2.69558L5.11853 18.1876C5.20076 18.7081 5.69949 19.1346 6.22654 19.1346H21.5831V17.2178H6.90627L6.60325 15.3014H21.5835L23.4998 4.75965ZM19.9841 13.3847H6.30016L5.24067 6.67666H21.2031L19.9841 13.3847Z" fill="white"/>
</svg>
