<svg width="46" height="46" viewBox="0 0 46 46" fill="none" xmlns="http://www.w3.org/2000/svg">
<path d="M32.3351 16.9463L25.7909 26.7625C25.365 27.4014 24.4078 27.3418 24.0645 26.655L21.8557 22.2375C21.5123 21.5508 20.5551 21.4912 20.1292 22.1301L13.5851 31.9463" stroke="#09C269" stroke-width="3" stroke-linecap="round" stroke-linejoin="round"/>
<path d="M6.08508 11.6963C6.08508 8.86786 6.08508 7.45365 6.96376 6.57497C7.84244 5.69629 9.25666 5.69629 12.0851 5.69629H33.8351C36.6635 5.69629 38.0777 5.69629 38.9564 6.57497C39.8351 7.45365 39.8351 8.86786 39.8351 11.6963V33.4463C39.8351 36.2747 39.8351 37.6889 38.9564 38.5676C38.0777 39.4463 36.6635 39.4463 33.8351 39.4463H12.0851C9.25666 39.4463 7.84244 39.4463 6.96376 38.5676C6.08508 37.6889 6.08508 36.2747 6.08508 33.4463V11.6963Z" stroke="#09C269" stroke-width="3"/>
</svg>
