<svg width="51" height="51" viewBox="0 0 51 51" fill="none" xmlns="http://www.w3.org/2000/svg">
<path fill-rule="evenodd" clip-rule="evenodd" d="M29.9551 24.6546H40.71C41.2622 24.6546 41.71 24.2069 41.71 23.6546V19.1546C41.71 18.6023 41.2622 18.1546 40.71 18.1546H37.8031L37.7333 18.1547C37.4276 18.1549 37.0054 18.1553 36.629 18.1168C36.1795 18.071 35.4446 17.944 34.7204 17.4419C33.942 16.9023 33.5626 16.1818 33.387 15.8164C33.2188 15.4664 33.062 15.0471 32.935 14.7075L32.9085 14.6368C31.8531 11.8191 29.1361 9.82129 25.96 9.82129C22.7839 9.82129 20.0668 11.8191 19.0114 14.6368L18.9849 14.7075C18.8579 15.0471 18.7011 15.4664 18.5329 15.8164C18.3574 16.1818 17.9779 16.9023 17.1996 17.4419C16.4753 17.944 15.7404 18.071 15.291 18.1168C14.9145 18.1553 14.4924 18.1549 14.1867 18.1547L14.1169 18.1546H13.46C11.665 18.1546 10.21 19.6097 10.21 21.4046C10.21 23.1995 11.665 24.6546 13.46 24.6546H21.9649L18.9649 27.6546H13.46C10.0082 27.6546 7.20996 24.8564 7.20996 21.4046C7.20996 17.9528 10.0082 15.1546 13.46 15.1546H14.1169C14.8612 15.1546 15.2333 15.1546 15.4903 14.9764C15.7473 14.7983 15.8989 14.3937 16.202 13.5845C17.6819 9.63363 21.4925 6.82129 25.96 6.82129C30.4274 6.82129 34.238 9.63363 35.7179 13.5845C36.021 14.3937 36.1726 14.7983 36.4296 14.9764C36.6866 15.1546 37.0588 15.1546 37.8031 15.1546H40.71C42.9191 15.1546 44.71 16.9455 44.71 19.1546V23.6546C44.71 25.8638 42.9191 27.6546 40.71 27.6546H32.9551L29.9551 24.6546Z" fill="#09C269"/>
<path d="M25.9599 25.5713L24.8993 24.5106L25.9599 23.45L27.0206 24.5106L25.9599 25.5713ZM27.4599 44.3213C27.4599 45.1497 26.7883 45.8213 25.9599 45.8213C25.1315 45.8213 24.4599 45.1497 24.4599 44.3213L27.4599 44.3213ZM16.5659 32.844L24.8993 24.5106L27.0206 26.6319L18.6872 34.9653L16.5659 32.844ZM27.0206 24.5106L35.3539 32.844L33.2326 34.9653L24.8993 26.6319L27.0206 24.5106ZM27.4599 25.5713L27.4599 44.3213L24.4599 44.3213L24.4599 25.5713L27.4599 25.5713Z" fill="#09C269"/>
</svg>
