<svg width="51" height="51" viewBox="0 0 51 51" fill="none" xmlns="http://www.w3.org/2000/svg">
<path d="M24.3595 42.857L25.3198 41.7046L24.3595 42.857C25.2866 43.6296 26.6333 43.6296 27.5604 42.857L26.6002 41.7046L27.5604 42.857L37.6014 34.4895C39.0623 33.2721 40.0062 31.5451 40.2421 29.6581L41.9384 16.0876C42.0766 14.982 41.4665 13.9185 40.4425 13.4796L26.9448 7.69489C26.3159 7.42537 25.604 7.42537 24.9752 7.69489L11.4775 13.4796C10.4534 13.9185 9.84337 14.982 9.98156 16.0876L11.6779 29.6581C11.9138 31.5451 12.8577 33.2721 14.3186 34.4895L24.3595 42.857Z" stroke="#09C269" stroke-width="3" stroke-linecap="round"/>
<path d="M19.71 25.5713L25.5287 31.39C25.7518 31.6131 26.1233 31.5764 26.2983 31.3138L34.2933 19.3213" stroke="#09C269" stroke-width="3" stroke-linecap="round"/>
</svg>
