<svg width="24" height="24" viewBox="0 0 24 24" fill="none" xmlns="http://www.w3.org/2000/svg">
<path d="M21.6429 12.8168C21.7375 12.8165 21.8282 12.7788 21.8951 12.7119C21.962 12.645 21.9997 12.5543 22 12.4597V10.2883C22 9.80802 21.8092 9.34747 21.4696 9.00789C21.1301 8.66832 20.6695 8.47755 20.1893 8.47754H8.48571V10.0704C8.48571 10.1651 8.44809 10.256 8.38111 10.3229C8.31413 10.3899 8.22329 10.4275 8.12857 10.4275C8.03385 10.4275 7.94301 10.3899 7.87603 10.3229C7.80906 10.256 7.77143 10.1651 7.77143 10.0704V8.47754H3.81072C3.33049 8.47755 2.86993 8.66832 2.53036 9.00789C2.19079 9.34747 2.00001 9.80802 2 10.2883V12.4597C2.00028 12.5543 2.03799 12.645 2.10491 12.7119C2.17183 12.7788 2.26251 12.8165 2.35714 12.8168C3.60714 12.8168 4.66429 13.524 4.66429 14.3597C4.70513 15.252 3.638 15.9673 2.35714 15.974C2.3102 15.9738 2.26368 15.9829 2.22028 16.0008C2.17687 16.0187 2.13744 16.045 2.10424 16.0782C2.07104 16.1114 2.04474 16.1508 2.02685 16.1942C2.00896 16.2376 1.99984 16.2842 2 16.3311V18.5025C2.00076 18.9822 2.19189 19.442 2.5314 19.7808C2.87091 20.1196 3.33105 20.3099 3.81072 20.3097H7.77143C7.77029 19.9229 7.77225 19.1111 7.77143 18.7204C7.77321 18.6268 7.81162 18.5377 7.8784 18.4722C7.94519 18.4067 8.03502 18.37 8.12858 18.37C8.22214 18.37 8.31197 18.4067 8.37875 18.4722C8.44554 18.5377 8.48394 18.6269 8.48571 18.7204C8.48818 19.1074 8.48393 19.9244 8.48571 20.3097H20.1893C20.669 20.3099 21.1291 20.1196 21.4686 19.7808C21.8081 19.442 21.9992 18.9822 22 18.5025V16.3311C22.0002 16.2842 21.991 16.2376 21.9731 16.1942C21.9553 16.1508 21.929 16.1114 21.8958 16.0782C21.8626 16.045 21.8231 16.0187 21.7797 16.0008C21.7363 15.9829 21.6898 15.9738 21.6429 15.974C18.5731 15.8801 18.5827 12.9068 21.6429 12.8168ZM8.12857 11.4847C8.22321 11.485 8.31389 11.5227 8.38081 11.5896C8.44773 11.6565 8.48544 11.7472 8.48571 11.8418V13.0775C8.48571 13.1723 8.44809 13.2631 8.38111 13.3301C8.31413 13.3971 8.22329 13.4347 8.12857 13.4347C8.03385 13.4347 7.94301 13.3971 7.87603 13.3301C7.80906 13.2631 7.77143 13.1723 7.77143 13.0775V11.8418C7.77171 11.7472 7.80943 11.6565 7.87635 11.5896C7.94326 11.5227 8.03394 11.485 8.12857 11.4847ZM8.12857 17.3025C8.08163 17.3027 8.03511 17.2936 7.99171 17.2757C7.9483 17.2578 7.90887 17.2315 7.87567 17.1983C7.84248 17.1651 7.81617 17.1257 7.79828 17.0823C7.78039 17.0389 7.77127 16.9923 7.77143 16.9454V15.7133C7.77143 15.6185 7.80906 15.5277 7.87603 15.4607C7.94301 15.3937 8.03385 15.3561 8.12857 15.3561C8.22329 15.3561 8.31413 15.3937 8.38111 15.4607C8.44809 15.5277 8.48571 15.6185 8.48571 15.7133V16.9454C8.48588 16.9923 8.47676 17.0389 8.45887 17.0823C8.44098 17.1257 8.41467 17.1651 8.38148 17.1983C8.34828 17.2315 8.30885 17.2578 8.26544 17.2757C8.22203 17.2936 8.17552 17.3027 8.12857 17.3025Z" fill="#737C90"/>
<path d="M19.1801 7.76325L17.6623 4.73111C17.5154 4.43709 17.2643 4.20832 16.9579 4.08946C16.6515 3.9706 16.3118 3.97017 16.0051 4.08825L6.35156 7.76325H19.1801Z" fill="#737C90"/>
</svg>
