<svg width="24" height="24" viewBox="0 0 24 24" fill="none" xmlns="http://www.w3.org/2000/svg">
<path d="M4.75509 4.34395L5.13938 4.78931L5.13938 4.78931L4.75509 4.34395ZM12.3117 2.23896L12.8825 2.38127C12.9241 2.21442 12.8906 2.03771 12.7908 1.89765C12.6911 1.7576 12.535 1.66822 12.3637 1.65303L12.3117 2.23896ZM5.0205 4.79776L4.88403 4.22558L4.88403 4.22558L5.0205 4.79776ZM11.7317 4.56553L11.6466 5.14759C11.9458 5.19129 12.2293 5.00116 12.3024 4.70784L11.7317 4.56553ZM21.5436 8.91733L21.9327 8.47618L21.9327 8.47618L21.5436 8.91733ZM15.727 5.56166L15.1562 5.41935C15.0831 5.71267 15.2442 6.01367 15.5288 6.11551L15.727 5.56166ZM21.991 8.64123L22.5394 8.42841L22.5394 8.4284L21.991 8.64123ZM16.3071 3.2351L16.5363 2.69336C16.3779 2.62635 16.1982 2.632 16.0443 2.70882C15.8905 2.78564 15.7779 2.92594 15.7363 3.09279L16.3071 3.2351ZM5.13938 4.78931C6.81066 3.3472 9.40213 2.57152 12.2598 2.8249L12.3637 1.65303C9.25446 1.37734 6.32842 2.20941 4.3708 3.89859L5.13938 4.78931ZM4.88403 4.22558C4.99925 4.1981 5.13252 4.25292 5.20102 4.36776C5.23458 4.42403 5.25639 4.5014 5.24392 4.58896C5.23066 4.68218 5.18362 4.75113 5.13938 4.78931L4.3708 3.89859C4.0279 4.19447 3.99613 4.64435 4.19064 4.97044C4.3759 5.28102 4.7539 5.46608 5.15697 5.36995L4.88403 4.22558ZM11.8167 3.98348C9.35691 3.62409 6.98257 3.72507 4.88403 4.22558L5.15697 5.36995C7.09873 4.90684 9.32204 4.80796 11.6466 5.14759L11.8167 3.98348ZM12.3024 4.70784L12.8825 2.38127L11.741 2.09666L11.1609 4.42323L12.3024 4.70784ZM21.9327 8.47618C20.3148 7.04909 18.2658 5.84527 15.9252 5.00781L15.5288 6.11551C17.7408 6.90694 19.6574 8.038 21.1545 9.35848L21.9327 8.47618ZM21.4426 8.85405C21.4215 8.79957 21.4123 8.71662 21.4444 8.62808C21.4745 8.54492 21.5301 8.48684 21.5861 8.45291C21.7005 8.38367 21.8439 8.39783 21.9327 8.47618L21.1545 9.35848C21.4653 9.63259 21.8859 9.64664 22.1953 9.45937C22.5201 9.26276 22.7033 8.85063 22.5394 8.42841L21.4426 8.85405ZM16.0779 3.77684C18.72 4.89469 20.644 6.79616 21.4426 8.85406L22.5394 8.4284C21.6039 6.01794 19.411 3.90961 16.5363 2.69336L16.0779 3.77684ZM15.7363 3.09279L15.1562 5.41935L16.2978 5.70397L16.8778 3.37741L15.7363 3.09279Z" fill="#707070"/>
<rect x="12.566" y="4.86621" width="2.35294" height="5.88235" transform="rotate(14 12.566 4.86621)" stroke="#707070" stroke-width="1.17647" stroke-linecap="round" stroke-linejoin="round"/>
<rect x="10.5724" y="10.4315" width="3.52941" height="11.1765" transform="rotate(14 10.5724 10.4315)" stroke="#707070" stroke-width="1.17647" stroke-linecap="round" stroke-linejoin="round"/>
<rect x="12.4215" y="1.79895" width="4.11765" height="3.23529" transform="rotate(14 12.4215 1.79895)" stroke="#707070" stroke-width="1.17647" stroke-linecap="round" stroke-linejoin="round"/>
</svg>
