<svg width="21" height="16" viewBox="0 0 21 16" fill="none" xmlns="http://www.w3.org/2000/svg">
<path fill-rule="evenodd" clip-rule="evenodd" d="M6.38267 0.13501H11.2539C12.5577 0.134991 13.6086 0.134975 14.4351 0.246096C15.2932 0.361464 16.0157 0.608275 16.5895 1.1821C17.1181 1.71065 17.3692 2.36533 17.4957 3.13593C18.2664 3.26238 18.9211 3.51353 19.4498 4.04214C20.0236 4.61597 20.2704 5.33847 20.3858 6.19657C20.4969 7.02308 20.4969 8.07396 20.4968 9.37772V9.48234C20.4969 10.7861 20.4969 11.837 20.3858 12.6635C20.2704 13.5216 20.0236 14.2441 19.4498 14.8179C18.8759 15.3917 18.1534 15.6386 17.2953 15.7539C16.4688 15.865 15.4179 15.865 14.1142 15.865H9.2429C7.93914 15.865 6.88826 15.865 6.06175 15.7539C5.20365 15.6386 4.48115 15.3917 3.90732 14.8179C3.37876 14.2894 3.12761 13.6347 3.00115 12.8641C2.23045 12.7376 1.57569 12.4865 1.04709 11.9579C0.473266 11.3841 0.226454 10.6615 0.111086 9.80345C-3.49958e-05 8.97694 -1.91397e-05 7.92607 5.20992e-07 6.6223V6.51768C-1.91397e-05 5.21391 -3.49958e-05 4.16304 0.111086 3.33653C0.226454 2.47843 0.473266 1.75593 1.04709 1.1821C1.62092 0.608275 2.34342 0.361464 3.20152 0.246096C4.02803 0.134975 5.0789 0.134991 6.38267 0.13501ZM4.4861 12.9875C4.58609 13.3715 4.72851 13.6168 4.91848 13.8068C5.18233 14.0706 5.55277 14.2426 6.2523 14.3367C6.9724 14.4335 7.92679 14.435 9.29521 14.435H14.0619C15.4303 14.435 16.3847 14.4335 17.1048 14.3367C17.8043 14.2426 18.1747 14.0706 18.4386 13.8068C18.7024 13.5429 18.8745 13.1725 18.9685 12.4729C19.0653 11.7528 19.0668 10.7985 19.0668 9.43003C19.0668 8.0616 19.0653 7.10721 18.9685 6.38712C18.8745 5.68758 18.7024 5.31715 18.4386 5.0533C18.2486 4.8633 18.0033 4.72086 17.6191 4.62086C17.6366 5.18227 17.6366 5.81304 17.6366 6.51768V6.6223C17.6366 7.92606 17.6366 8.97694 17.5255 9.80345C17.4102 10.6615 17.1633 11.3841 16.5895 11.9579C16.0157 12.5317 15.2932 12.7785 14.4351 12.8939C13.6086 13.005 12.5577 13.005 11.2539 13.005H6.38267C5.67813 13.005 5.04744 13.005 4.4861 12.9875ZM3.39206 1.66334C2.69253 1.75739 2.3221 1.92941 2.05825 2.19326C1.7944 2.45711 1.62238 2.82754 1.52833 3.52707C1.43151 4.24717 1.43 5.20156 1.43 6.56999C1.43 7.93842 1.43151 8.89281 1.52833 9.61291C1.62238 10.3124 1.7944 10.6829 2.05825 10.9467C2.3221 11.2106 2.69253 11.3826 3.39206 11.4766C4.11216 11.5735 5.06655 11.575 6.43498 11.575H11.2016C12.5701 11.575 13.5244 11.5735 14.2445 11.4766C14.9441 11.3826 15.3145 11.2106 15.5784 10.9467C15.8422 10.6829 16.0142 10.3124 16.1083 9.61291C16.2051 8.89281 16.2066 7.93842 16.2066 6.56999C16.2066 5.20156 16.2051 4.24717 16.1083 3.52707C16.0142 2.82754 15.8422 2.45711 15.5784 2.19326C15.3145 1.92941 14.9441 1.75739 14.2445 1.66334C13.5244 1.56652 12.5701 1.56501 11.2016 1.56501H6.43498C5.06655 1.56501 4.11216 1.56652 3.39206 1.66334ZM8.81831 4.90166C7.89691 4.90166 7.14998 5.6486 7.14998 6.56999C7.14998 7.49138 7.89691 8.23832 8.81831 8.23832C9.7397 8.23832 10.4866 7.49138 10.4866 6.56999C10.4866 5.6486 9.7397 4.90166 8.81831 4.90166ZM5.71998 6.56999C5.71998 4.85883 7.10715 3.47167 8.81831 3.47167C10.5295 3.47167 11.9166 4.85883 11.9166 6.56999C11.9166 8.28115 10.5295 9.66831 8.81831 9.66831C7.10715 9.66831 5.71998 8.28115 5.71998 6.56999ZM3.57499 3.94833C3.96987 3.94833 4.28999 4.26845 4.28999 4.66333V8.47665C4.28999 8.87153 3.96987 9.19165 3.57499 9.19165C3.18011 9.19165 2.85999 8.87153 2.85999 8.47665L2.85999 4.66333C2.85999 4.26845 3.18011 3.94833 3.57499 3.94833ZM14.0616 3.94833C14.4565 3.94833 14.7766 4.26845 14.7766 4.66333V8.47665C14.7766 8.87153 14.4565 9.19165 14.0616 9.19165C13.6667 9.19165 13.3466 8.87153 13.3466 8.47665V4.66333C13.3466 4.26845 13.6667 3.94833 14.0616 3.94833Z" fill="#707070"/>
</svg>
