<svg width="25" height="25" viewBox="0 0 25 25" fill="none" xmlns="http://www.w3.org/2000/svg">
<path d="M12.5 8.33335C11.9475 8.33335 11.4176 8.11386 11.0269 7.72316C10.6362 7.33246 10.4167 6.80255 10.4167 6.25002C10.4167 5.69749 10.6362 5.16758 11.0269 4.77688C11.4176 4.38618 11.9475 4.16669 12.5 4.16669C13.0525 4.16669 13.5824 4.38618 13.9731 4.77688C14.3638 5.16758 14.5833 5.69749 14.5833 6.25002C14.5833 6.80255 14.3638 7.33246 13.9731 7.72316C13.5824 8.11386 13.0525 8.33335 12.5 8.33335ZM12.5 8.33335V16.6667M12.5 16.6667C13.0525 16.6667 13.5824 16.8862 13.9731 17.2769C14.3638 17.6676 14.5833 18.1975 14.5833 18.75C14.5833 19.3026 14.3638 19.8325 13.9731 20.2232C13.5824 20.6139 13.0525 20.8334 12.5 20.8334C11.9475 20.8334 11.4176 20.6139 11.0269 20.2232C10.6362 19.8325 10.4167 19.3026 10.4167 18.75C10.4167 18.1975 10.6362 17.6676 11.0269 17.2769C11.4176 16.8862 11.9475 16.6667 12.5 16.6667ZM6.57917 13.0167L11.1292 7.81669M18.4208 13.0167L13.8729 7.81877M7.29167 14.5834C7.29167 14.0308 7.07217 13.5009 6.68147 13.1102C6.29077 12.7195 5.76087 12.5 5.20833 12.5C4.6558 12.5 4.12589 12.7195 3.73519 13.1102C3.34449 13.5009 3.125 14.0308 3.125 14.5834C3.125 15.1359 3.34449 15.6658 3.73519 16.0565C4.12589 16.4472 4.6558 16.6667 5.20833 16.6667C5.76087 16.6667 6.29077 16.4472 6.68147 16.0565C7.07217 15.6658 7.29167 15.1359 7.29167 14.5834ZM21.875 14.5834C21.875 14.0308 21.6555 13.5009 21.2648 13.1102C20.8741 12.7195 20.3442 12.5 19.7917 12.5C19.2391 12.5 18.7092 12.7195 18.3185 13.1102C17.9278 13.5009 17.7083 14.0308 17.7083 14.5834C17.7083 15.1359 17.9278 15.6658 18.3185 16.0565C18.7092 16.4472 19.2391 16.6667 19.7917 16.6667C20.3442 16.6667 20.8741 16.4472 21.2648 16.0565C21.6555 15.6658 21.875 15.1359 21.875 14.5834Z" stroke="#707070" stroke-width="1.5" stroke-linecap="round" stroke-linejoin="round"/>
</svg>
