<svg width="51" height="50" viewBox="0 0 51 50" fill="none" xmlns="http://www.w3.org/2000/svg">
<path d="M10.7977 7.84114L12.9238 5.71512C13.5258 5.11306 14.502 5.11306 15.104 5.71512L21.8127 12.4238C22.4147 13.0258 22.4147 14.002 21.8127 14.604L19.0622 17.3545C18.7016 17.7151 18.6122 18.266 18.8403 18.7222C21.4773 23.9962 25.7538 28.2727 31.0278 30.9097C31.484 31.1378 32.0349 31.0484 32.3955 30.6878L35.146 27.9373C35.748 27.3353 36.7242 27.3353 37.3262 27.9373L44.0349 34.646C44.6369 35.248 44.6369 36.2242 44.0349 36.8262L41.9089 38.9523C38.6539 42.2073 33.5007 42.5735 29.8181 39.8115L22.5107 34.331C19.8228 32.315 17.435 29.9272 15.419 27.2393L9.93849 19.9319C7.17653 16.2493 7.54275 11.0961 10.7977 7.84114Z" stroke="white" stroke-width="2.2"/>
</svg>
