<svg width="51" height="50" viewBox="0 0 51 50" fill="none" xmlns="http://www.w3.org/2000/svg">
<path d="M25.9006 41.4761L26.3875 42.4625L26.3875 42.4625L25.9006 41.4761ZM25.102 41.4761L24.6151 42.4625H24.6151L25.102 41.4761ZM38.9846 22.9167C38.9846 28.0031 36.252 32.0861 33.1094 35.0987C29.9711 38.1072 26.537 39.9352 25.4137 40.4898L26.3875 42.4625C27.6054 41.8613 31.2633 39.916 34.6318 36.6869C37.9959 33.462 41.1846 28.8432 41.1846 22.9167H38.9846ZM25.5013 9.43337C32.9479 9.43337 38.9846 15.4701 38.9846 22.9167H41.1846C41.1846 14.255 34.163 7.23337 25.5013 7.23337V9.43337ZM12.018 22.9167C12.018 15.4701 18.0547 9.43337 25.5013 9.43337V7.23337C16.8396 7.23337 9.81797 14.255 9.81797 22.9167H12.018ZM25.5889 40.4898C24.4656 39.9352 21.0315 38.1072 17.8932 35.0987C14.7506 32.0861 12.018 28.0031 12.018 22.9167H9.81797C9.81797 28.8432 13.0067 33.462 16.3708 36.6869C19.7393 39.916 23.3972 41.8613 24.6151 42.4625L25.5889 40.4898ZM25.4137 40.4898C25.4345 40.4795 25.465 40.4707 25.5013 40.4707C25.5376 40.4707 25.5681 40.4795 25.5889 40.4898L24.6151 42.4625C25.1774 42.7401 25.8252 42.7401 26.3875 42.4625L25.4137 40.4898ZM30.65 22.9167C30.65 25.761 28.3443 28.0667 25.5 28.0667V30.2667C29.5593 30.2667 32.85 26.976 32.85 22.9167H30.65ZM25.5 17.7667C28.3443 17.7667 30.65 20.0725 30.65 22.9167H32.85C32.85 18.8575 29.5593 15.5667 25.5 15.5667V17.7667ZM20.35 22.9167C20.35 20.0725 22.6557 17.7667 25.5 17.7667V15.5667C21.4407 15.5667 18.15 18.8575 18.15 22.9167H20.35ZM25.5 28.0667C22.6557 28.0667 20.35 25.761 20.35 22.9167H18.15C18.15 26.976 21.4407 30.2667 25.5 30.2667V28.0667Z" fill="white"/>
</svg>
