<svg width="153" height="43" viewBox="0 0 153 43" fill="none" xmlns="http://www.w3.org/2000/svg">
<path d="M0.502136 2.2335C0.135463 1.8205 0.173018 1.18845 0.586018 0.821777C0.999018 0.455104 1.63107 0.492659 1.99774 0.905659L0.502136 2.2335ZM151.435 19.8822C151.978 19.9843 152.335 20.5071 152.233 21.0499L150.569 29.8947C150.466 30.4374 149.944 30.7947 149.401 30.6925C148.858 30.5904 148.501 30.0676 148.603 29.5249L150.082 21.6628L142.22 20.1836C141.677 20.0815 141.32 19.5587 141.422 19.0159C141.524 18.4732 142.047 18.116 142.59 18.2181L151.435 19.8822ZM1.99774 0.905659C3.07177 2.11538 4.23733 3.3588 5.49068 4.62467L4.06945 6.03183C2.7917 4.74131 1.60125 3.47148 0.502136 2.2335L1.99774 0.905659ZM13.0521 11.5813C15.559 13.6927 18.2747 15.8086 21.1827 17.8824L20.0215 19.5107C17.0693 17.4055 14.3112 15.2566 11.7637 13.1111L13.0521 11.5813ZM29.7826 23.5212C32.6523 25.2463 35.6594 26.9042 38.7927 28.463L37.9019 30.2537C34.7192 28.6703 31.6656 26.9867 28.7521 25.2353L29.7826 23.5212ZM48.1743 32.6574C51.3111 33.9048 54.5476 35.0392 57.875 36.0349L57.3017 37.9509C53.9159 36.9378 50.624 35.7839 47.4353 34.5158L48.1743 32.6574ZM67.8347 38.5227C71.1454 39.1869 74.5297 39.7041 77.9799 40.0525L77.779 42.0423C74.262 41.6873 70.8135 41.1602 67.4413 40.4837L67.8347 38.5227ZM88.2229 40.5696C91.5871 40.569 95.0037 40.3997 98.4663 40.0433L98.671 42.0328C95.1392 42.3963 91.6544 42.569 88.2233 42.5696L88.2229 40.5696ZM108.612 38.4729C111.883 37.7951 115.19 36.9429 118.526 35.9015L119.122 37.8107C115.723 38.8716 112.353 39.7403 109.017 40.4313L108.612 38.4729ZM128.167 32.3854C131.247 31.0979 134.348 29.6425 137.467 28.0079L138.395 29.7794C135.226 31.4404 132.072 32.9206 128.938 34.2307L128.167 32.3854ZM146.361 22.8789C147.8 21.9724 149.241 21.0262 150.686 20.0393L151.814 21.6906C150.35 22.6914 148.887 23.6512 147.427 24.5711L146.361 22.8789Z" fill="#1E2329"/>
</svg>
