<svg width="153" height="43" viewBox="0 0 153 43" fill="none" xmlns="http://www.w3.org/2000/svg">
<path d="M0.835693 40.9057C0.46902 41.3187 0.506575 41.9507 0.919575 42.3174C1.33258 42.6841 1.96463 42.6465 2.3313 42.2335L0.835693 40.9057ZM151.768 23.2569C152.311 23.1548 152.668 22.632 152.566 22.0893L150.902 13.2445C150.8 12.7017 150.277 12.3445 149.734 12.4466C149.192 12.5487 148.834 13.0715 148.937 13.6143L150.416 21.4763L142.554 22.9556C142.011 23.0577 141.654 23.5805 141.756 24.1232C141.858 24.666 142.381 25.0232 142.924 24.9211L151.768 23.2569ZM2.3313 42.2335C3.40533 41.0238 4.57089 39.7804 5.82423 38.5145L4.403 37.1073C3.12526 38.3978 1.93481 39.6677 0.835693 40.9057L2.3313 42.2335ZM13.3856 31.5579C15.8926 29.4465 18.6083 27.3305 21.5163 25.2568L20.3551 23.6284C17.4028 25.7337 14.6448 27.8826 12.0973 30.0281L13.3856 31.5579ZM30.1161 19.618C32.9859 17.8929 35.993 16.2349 39.1263 14.6761L38.2354 12.8855C35.0528 14.4688 31.9991 16.1525 29.0857 17.9038L30.1161 19.618ZM48.5079 10.4818C51.6446 9.23435 54.8812 8.09993 58.2086 7.10429L57.6352 5.18823C54.2494 6.20135 50.9576 7.35522 47.7688 8.62333L48.5079 10.4818ZM68.1682 4.61643C71.479 3.95224 74.8633 3.43504 78.3135 3.08669L78.1126 1.09681C74.5955 1.4519 71.147 1.97899 67.7749 2.6555L68.1682 4.61643ZM88.5565 2.56958C91.9207 2.57018 95.3372 2.73948 98.7998 3.09585L99.0046 1.10636C95.4728 0.742865 91.988 0.570193 88.5568 0.569582L88.5565 2.56958ZM108.945 4.6663C112.217 5.34404 115.523 6.19627 118.859 7.23761L119.455 5.32846C116.057 4.26757 112.687 3.3989 109.351 2.70788L108.945 4.6663ZM128.5 10.7538C131.581 12.0412 134.682 13.4967 137.801 15.1312L138.729 13.3598C135.56 11.6987 132.406 10.2186 129.271 8.90848L128.5 10.7538ZM146.694 20.2602C148.133 21.1668 149.575 22.113 151.019 23.0998L152.148 21.4485C150.683 20.4478 149.221 19.488 147.761 18.5681L146.694 20.2602Z" fill="#1E2329"/>
</svg>
