<svg width="57" height="57" viewBox="0 0 57 57" fill="none" xmlns="http://www.w3.org/2000/svg">
<path d="M12.3131 9.6296C9.29434 10.5483 6.58184 12.8671 5.05059 15.7983C3.86934 18.0733 3.91309 23.3233 5.18184 25.6858C6.93184 29.0108 12.2693 32.5983 14.2818 31.8108C15.4631 31.3733 14.8506 30.6296 12.6631 29.7983C9.55684 28.6171 8.11309 27.3483 6.80059 24.7671C4.48184 19.9983 6.27559 14.6608 10.9568 12.2108C14.0631 10.5921 16.6006 10.5921 19.7943 12.1671C22.8568 13.7421 24.5193 16.1046 24.8256 19.3421C25.2631 23.9358 21.6318 34.8733 17.0818 42.3546C15.3756 45.1983 14.9818 46.2046 15.3756 46.5983C16.9068 48.0859 23.1193 35.7046 25.7006 26.0796C26.9693 21.2671 26.9693 18.3796 25.7006 15.7546C23.4256 10.9421 17.2568 8.14209 12.3131 9.6296Z" fill="white"/>
<path d="M38.5631 9.62954C35.4568 10.6358 32.8318 12.867 31.3006 15.7983C30.1193 18.0733 30.1631 23.3233 31.4318 25.6858C33.1818 29.0108 38.5193 32.5983 40.5318 31.8108C41.7131 31.3733 41.1006 30.6295 38.9131 29.7983C35.8068 28.617 34.3631 27.3483 33.0506 24.767C28.8506 16.1045 38.4756 7.52954 46.7443 12.5608C49.8068 14.442 51.4256 17.6358 51.0756 21.3108C50.6381 26.6045 46.8756 36.4483 42.6318 43.492C41.4506 45.4608 41.1881 46.1608 41.6256 46.5545C42.3693 47.2983 43.7693 45.417 46.6131 39.8608C50.2443 32.7733 53.0006 24.1983 53.0006 20.0858C52.9568 16.4545 50.2443 12.2983 46.6568 10.4608C44.7756 9.49829 40.3568 9.01704 38.5631 9.62954Z" fill="white"/>
</svg>
