<svg width="51" height="51" viewBox="0 0 51 51" fill="none" xmlns="http://www.w3.org/2000/svg">
<path d="M24.8976 42.6503C24.89 42.6603 24.8908 42.6581 24.9 42.6471C24.8991 42.6483 24.8983 42.6494 24.8976 42.6503ZM27.1163 43.2545C27.1161 43.2533 27.116 43.252 27.1158 43.2505C27.1182 43.2646 27.1178 43.267 27.1163 43.2545ZM26.3104 23.2971C26.3181 23.2871 26.3172 23.2894 26.3081 23.3003C26.3089 23.2991 26.3097 23.2981 26.3104 23.2971ZM24.0918 22.693C24.0919 22.6941 24.0921 22.6955 24.0922 22.6969C24.0898 22.6828 24.0903 22.6805 24.0918 22.693ZM20.7675 37.182H24.104V42.5959C24.104 42.6169 24.104 42.6381 24.104 42.6596C24.1038 42.9709 24.1036 43.3298 24.1378 43.6135C24.1559 43.763 24.1973 44.0342 24.333 44.3131C24.4913 44.6386 24.8199 45.0461 25.3942 45.2025C25.9686 45.3589 26.4584 45.1742 26.7599 44.974C27.0183 44.8024 27.1914 44.5896 27.2828 44.4699C27.4561 44.2427 27.6379 43.9332 27.7956 43.6648C27.8065 43.6463 27.8173 43.628 27.8279 43.6099L33.4573 34.0399C33.4735 34.0125 33.4896 33.985 33.5057 33.9576C33.857 33.3607 34.2012 32.776 34.4044 32.2737C34.6215 31.737 34.8502 30.883 34.3591 30.0242C33.8679 29.1654 33.0158 28.9296 32.4431 28.8446C31.9072 28.765 31.2286 28.7652 30.536 28.7654C30.5042 28.7654 30.4724 28.7654 30.4405 28.7654H27.104V23.3515C27.104 23.3306 27.104 23.3093 27.104 23.2879C27.1042 22.9766 27.1044 22.6176 27.0702 22.3339C27.0522 22.1844 27.0108 21.9132 26.8751 21.6343C26.7167 21.3089 26.3882 20.9013 25.8138 20.7449C25.2395 20.5885 24.7496 20.7732 24.4482 20.9734C24.1898 21.145 24.0166 21.3578 23.9253 21.4775C23.7519 21.7047 23.5701 22.0142 23.4124 22.2826C23.4015 22.3011 23.3908 22.3194 23.3802 22.3375L17.7508 31.9075C17.7346 31.9349 17.7184 31.9624 17.7023 31.9898C17.351 32.5867 17.0068 33.1714 16.8037 33.6737C16.5866 34.2104 16.3578 35.0644 16.849 35.9232C17.3402 36.782 18.1923 37.0179 18.765 37.1029C19.3009 37.1824 19.9794 37.1822 20.672 37.1821C20.7038 37.1821 20.7357 37.182 20.7675 37.182Z" stroke="#09C269" stroke-width="3"/>
<path fill-rule="evenodd" clip-rule="evenodd" d="M25.604 5.43201C20.7569 5.43201 16.5889 8.32579 14.7273 12.4737C14.3422 13.3316 13.6714 13.7653 13.104 13.7653C8.8238 13.7653 5.354 17.2351 5.354 21.5153C5.354 25.0739 7.75247 28.0724 11.021 28.9822C11.0236 27.6232 11.0441 26.6268 11.205 25.8705C9.52685 25.1378 8.354 23.4635 8.354 21.5153C8.354 18.892 10.4807 16.7653 13.104 16.7653C15.2035 16.7653 16.7574 15.2771 17.4643 13.702C18.8598 10.5927 21.9812 8.43201 25.604 8.43201C28.54 8.43201 31.1446 9.84946 32.7718 12.0438L32.7928 12.0722L32.7929 12.0723C33.6122 13.1772 34.2537 14.0423 34.7551 14.6676C35.2109 15.236 35.7106 15.8202 36.2426 16.1357C36.4765 16.2745 36.546 16.3095 36.7967 16.4147C37.3075 16.629 37.8473 16.7005 38.377 16.7333C38.8966 16.7654 39.5405 16.7654 40.3072 16.7653H40.354C41.7347 16.7653 42.854 17.8846 42.854 19.2653V23.7653C42.854 25.1461 41.7347 26.2653 40.354 26.2653H40.0718C40.1782 27.023 40.1866 27.9929 40.1873 29.2653H40.354C43.3916 29.2653 45.854 26.8029 45.854 23.7653V19.2653C45.854 16.2278 43.3916 13.7653 40.354 13.7653C39.5282 13.7653 38.9778 13.7647 38.5621 13.739C38.146 13.7133 38.004 13.6679 37.9578 13.6485C37.9085 13.6278 37.8839 13.6174 37.8665 13.6098L37.8624 13.608L37.8584 13.6057C37.842 13.5963 37.819 13.5827 37.7731 13.5555C37.7747 13.5564 37.7731 13.5551 37.7682 13.5506C37.7345 13.5204 37.5416 13.3471 37.0956 12.7908C36.6341 12.2154 36.0265 11.3964 35.1815 10.2569C33.0129 7.3323 29.5302 5.43201 25.604 5.43201Z" fill="#09C269"/>
</svg>
