<svg width="50" height="51" viewBox="0 0 50 51" fill="none" xmlns="http://www.w3.org/2000/svg">
<path fill-rule="evenodd" clip-rule="evenodd" d="M24.4973 4.75928L27.3947 4.75928C28.1653 4.75928 28.7901 5.384 28.7901 6.15463C28.7901 6.92526 28.1653 7.54998 27.3947 7.54998H24.604C20.1794 7.54998 17.0013 7.55294 14.5828 7.87811C12.2043 8.19788 10.7704 8.80605 9.7106 9.86588C8.65078 10.9257 8.0426 12.3596 7.72283 14.738C7.39767 17.1566 7.3947 20.3347 7.3947 24.7593C7.3947 29.1839 7.39767 32.362 7.72283 34.7805C8.0426 37.159 8.65078 38.5929 9.7106 39.6527C10.7704 40.7125 12.2043 41.3207 14.5828 41.6404C17.0013 41.9656 20.1794 41.9686 24.604 41.9686C29.0286 41.9686 32.2067 41.9656 34.6253 41.6404C37.0037 41.3207 38.4376 40.7125 39.4974 39.6527C40.5572 38.5929 41.1654 37.159 41.4852 34.7805C41.8103 32.362 41.8133 29.1839 41.8133 24.7593V21.9686C41.8133 21.198 42.438 20.5732 43.2087 20.5732C43.9793 20.5732 44.604 21.198 44.604 21.9686V24.866C44.604 29.1607 44.604 32.5264 44.251 35.1524C43.8896 37.8403 43.1355 39.9612 41.4707 41.626C39.806 43.2908 37.685 44.0449 34.9971 44.4063C32.3711 44.7593 29.0054 44.7593 24.7107 44.7593H24.4973C20.2026 44.7593 16.8369 44.7593 14.2109 44.4063C11.523 44.0449 9.40204 43.2908 7.73728 41.626C6.07252 39.9612 5.3184 37.8403 4.95702 35.1524C4.60396 32.5264 4.60398 29.1607 4.604 24.866V24.6525C4.60398 20.3578 4.60396 16.9922 4.95702 14.3662C5.3184 11.6783 6.07252 9.55732 7.73728 7.89255C9.40204 6.22779 11.523 5.47367 14.2109 5.11229C16.8369 4.75923 20.2026 4.75925 24.4973 4.75928ZM33.4794 6.66796C36.0243 4.12305 40.1504 4.12305 42.6953 6.66796C45.2402 9.21286 45.2402 13.339 42.6953 15.8839L30.3268 28.2524C29.636 28.9433 29.2033 29.376 28.7204 29.7527C28.1517 30.1963 27.5363 30.5766 26.8852 30.8869C26.3324 31.1504 25.7518 31.3439 24.825 31.6527L19.4212 33.454C18.4236 33.7865 17.3236 33.5269 16.58 32.7833C15.8364 32.0396 15.5768 30.9397 15.9093 29.9421L17.7106 24.5383C18.0194 23.6115 18.2129 23.0309 18.4764 22.4781C18.7867 21.827 19.167 21.2116 19.6106 20.6428C19.9872 20.16 20.42 19.7273 21.1109 19.0365L33.4794 6.66796ZM40.722 8.64128C39.2669 7.18621 36.9078 7.18621 35.4527 8.64128L34.752 9.34197C34.7943 9.52031 34.8534 9.7328 34.9356 9.96982C35.2022 10.7383 35.7068 11.7504 36.6598 12.7035C37.6129 13.6565 38.625 14.1611 39.3935 14.4277C39.6305 14.5099 39.843 14.569 40.0213 14.6112L40.722 13.9106C42.1771 12.4555 42.1771 10.0963 40.722 8.64128ZM37.8229 16.8097C36.8629 16.3968 35.7448 15.735 34.6865 14.6768C33.6283 13.6185 32.9664 12.5003 32.5536 11.5404L23.1482 20.9458C22.3733 21.7207 22.0694 22.028 21.8111 22.3592C21.4922 22.7681 21.2187 23.2105 20.9956 23.6787C20.8149 24.0578 20.676 24.4671 20.3294 25.5067L19.5259 27.9173L21.446 29.8374L23.8566 29.0339C24.8962 28.6873 25.3055 28.5484 25.6846 28.3677C26.1527 28.1446 26.5952 27.8711 27.0041 27.5522C27.3353 27.2939 27.6426 26.99 28.4175 26.2151L37.8229 16.8097Z" fill="#09C269"/>
</svg>
