<svg width="50" height="51" viewBox="0 0 50 51" fill="none" xmlns="http://www.w3.org/2000/svg">
<path fill-rule="evenodd" clip-rule="evenodd" d="M19.4067 8.35964C18.9376 8.50824 18.4744 8.67714 18.0183 8.86606C15.9304 9.73091 14.0332 10.9985 12.4352 12.5966C10.8372 14.1946 9.56953 16.0917 8.70468 18.1797C8.01833 19.8367 7.59632 21.5881 7.45136 23.37H15.7871C15.8467 21.3312 16.0365 19.3219 16.352 17.4176C16.7389 15.0827 17.3105 12.9312 18.0463 11.0917C18.448 10.0874 18.9019 9.16801 19.4067 8.35964ZM24.604 4.76538C21.9776 4.76538 19.3769 5.2827 16.9503 6.28779C14.5238 7.29288 12.319 8.76607 10.4619 10.6232C8.6047 12.4804 7.13151 14.6852 6.12641 17.1117C5.12132 19.5382 4.604 22.1389 4.604 24.7654C4.604 27.3918 5.12132 29.9925 6.12641 32.419C7.13151 34.8456 8.6047 37.0503 10.4619 38.9075C12.319 40.7647 14.5238 42.2379 16.9503 43.243C19.3768 44.2481 21.9776 44.7654 24.604 44.7654C27.2304 44.7654 29.8312 44.2481 32.2577 43.243C34.6842 42.2379 36.889 40.7647 38.7461 38.9075C40.6033 37.0503 42.0765 34.8456 43.0816 32.4191C44.0867 29.9925 44.604 27.3918 44.604 24.7654C44.604 22.1389 44.0867 19.5382 43.0816 17.1117C42.0765 14.6852 40.6033 12.4804 38.7461 10.6232C36.889 8.76608 34.6842 7.29289 32.2577 6.28779C29.8312 5.2827 27.2304 4.76538 24.604 4.76538ZM24.604 7.55608C24.1179 7.55608 23.49 7.79011 22.7599 8.54621C22.0243 9.3079 21.2879 10.5017 20.6374 12.1281C19.9911 13.7438 19.4663 15.6942 19.1052 17.8738C18.8155 19.6225 18.6378 21.4782 18.5791 23.37L30.6289 23.37C30.5702 21.4782 30.3925 19.6225 30.1028 17.8738C29.7417 15.6942 29.2169 13.7438 28.5706 12.1281C27.9201 10.5017 27.1837 9.3079 26.4482 8.54621C25.718 7.79011 25.0901 7.55608 24.604 7.55608ZM33.4209 23.37C33.3613 21.3312 33.1715 19.3219 32.856 17.4176C32.4691 15.0827 31.8976 12.9312 31.1617 11.0917C30.76 10.0874 30.3061 9.16801 29.8013 8.35964C30.2704 8.50824 30.7336 8.67714 31.1897 8.86606C33.2777 9.73091 35.1748 10.9985 36.7728 12.5966C38.3709 14.1946 39.6385 16.0917 40.5033 18.1797C41.1897 19.8367 41.6117 21.5881 41.7566 23.37H33.4209ZM30.6289 26.1607L18.5791 26.1607C18.6378 28.0526 18.8155 29.9083 19.1052 31.657C19.4663 33.8366 19.9911 35.787 20.6374 37.4026C21.2879 39.0291 22.0243 40.2229 22.7599 40.9845C23.49 41.7407 24.1179 41.9747 24.604 41.9747C25.0901 41.9747 25.718 41.7407 26.4482 40.9846C27.1837 40.2229 27.9201 39.0291 28.5706 37.4026C29.2169 35.787 29.7417 33.8366 30.1028 31.657C30.3925 29.9083 30.5702 28.0526 30.6289 26.1607ZM29.8013 41.1711C30.3061 40.3628 30.76 39.4434 31.1617 38.4391C31.8976 36.5995 32.4691 34.448 32.856 32.1132C33.1715 30.2089 33.3613 28.1996 33.4209 26.1607H41.7566C41.6117 27.9427 41.1897 29.6941 40.5033 31.3511C39.6385 33.439 38.3708 35.3362 36.7728 36.9342C35.1748 38.5322 33.2776 39.7999 31.1897 40.6647C30.7336 40.8536 30.2704 41.0225 29.8013 41.1711ZM19.4067 41.1711C18.9019 40.3628 18.448 39.4434 18.0463 38.4391C17.3105 36.5995 16.7389 34.448 16.352 32.1132C16.0365 30.2089 15.8467 28.1996 15.7871 26.1607H7.45136C7.59632 27.9427 8.01833 29.6941 8.70468 31.3511C9.56953 33.439 10.8372 35.3362 12.4352 36.9342C14.0332 38.5322 15.9304 39.7999 18.0183 40.6647C18.4744 40.8536 18.9376 41.0225 19.4067 41.1711Z" fill="#09C269"/>
</svg>
