<svg width="50" height="51" viewBox="0 0 50 51" fill="none" xmlns="http://www.w3.org/2000/svg">
<path d="M25.0001 8.49463L10.4168 14.7446L25.0001 20.9946L39.5835 14.7446L25.0001 8.49463Z" stroke="#09C269" stroke-width="3" stroke-linejoin="round"/>
<path fill-rule="evenodd" clip-rule="evenodd" d="M18.127 20.2249L9.82591 23.7825C9.27438 24.0189 8.91679 24.5612 8.91679 25.1613C8.91679 25.7613 9.27438 26.3036 9.82591 26.54L24.4092 32.79C24.7866 32.9517 25.2137 32.9517 25.591 32.79L40.1743 26.54C40.7259 26.3036 41.0835 25.7613 41.0835 25.1613C41.0835 24.5612 40.7259 24.0189 40.1743 23.7825L31.8732 20.2249L28.0653 21.8569L35.7756 25.1613L25.0001 29.7793L14.2247 25.1613L21.9349 21.8569L18.127 20.2249ZM23.2042 18.049L24.4092 17.5325C24.7866 17.3708 25.2137 17.3708 25.591 17.5325L26.796 18.049L25.0001 18.8187L23.2042 18.049Z" fill="#09C269"/>
<path fill-rule="evenodd" clip-rule="evenodd" d="M18.127 30.6415L9.82591 34.1992C9.27438 34.4355 8.91679 34.9778 8.91679 35.5779C8.91679 36.1779 9.27438 36.7202 9.82591 36.9566L24.4092 43.2066C24.7866 43.3683 25.2137 43.3683 25.591 43.2066L40.1743 36.9566C40.7259 36.7202 41.0835 36.1779 41.0835 35.5779C41.0835 34.9778 40.7259 34.4355 40.1743 34.1992L31.8732 30.6415L28.0653 32.2735L35.7756 35.5779L25.0001 40.1959L14.2247 35.5779L21.9349 32.2735L18.127 30.6415ZM23.2042 28.4656L24.4092 27.9492C24.7866 27.7875 25.2137 27.7875 25.591 27.9492L26.796 28.4656L25.0001 29.2353L23.2042 28.4656Z" fill="#09C269"/>
</svg>
