<svg width="15" height="16" viewBox="0 0 15 16" fill="none" xmlns="http://www.w3.org/2000/svg">
<path d="M7.5 0.0833282C6.67591 0.0833282 5.87033 0.327699 5.18512 0.785538C4.49992 1.24338 3.96587 1.89412 3.6505 2.65548C3.33514 3.41684 3.25262 4.25462 3.41339 5.06287C3.57417 5.87113 3.971 6.61355 4.55372 7.19627C5.13644 7.77899 5.87887 8.17583 6.68712 8.3366C7.49538 8.49737 8.33316 8.41486 9.09451 8.09949C9.85587 7.78413 10.5066 7.25008 10.9645 6.56487C11.4223 5.87967 11.6667 5.07408 11.6667 4.24999C11.6667 3.14493 11.2277 2.08512 10.4463 1.30372C9.66488 0.522315 8.60507 0.0833282 7.5 0.0833282V0.0833282ZM7.5 6.74999C7.00555 6.74999 6.5222 6.60337 6.11107 6.32867C5.69995 6.05397 5.37952 5.66352 5.1903 5.2067C5.00108 4.74989 4.95157 4.24722 5.04804 3.76227C5.1445 3.27732 5.3826 2.83186 5.73223 2.48223C6.08186 2.1326 6.52732 1.89449 7.01227 1.79803C7.49723 1.70157 7.99989 1.75108 8.45671 1.9403C8.91352 2.12952 9.30397 2.44995 9.57867 2.86107C9.85338 3.27219 10 3.75554 10 4.24999C10 4.91304 9.73661 5.54892 9.26777 6.01776C8.79893 6.4866 8.16304 6.74999 7.5 6.74999V6.74999ZM15 15.9167V15.0833C15 13.5362 14.3854 12.0525 13.2915 10.9585C12.1975 9.86458 10.7138 9.24999 9.16667 9.24999H5.83333C4.28624 9.24999 2.80251 9.86458 1.70854 10.9585C0.614581 12.0525 0 13.5362 0 15.0833V15.9167H1.66667V15.0833C1.66667 13.9783 2.10565 12.9185 2.88706 12.137C3.66846 11.3556 4.72826 10.9167 5.83333 10.9167H9.16667C10.2717 10.9167 11.3315 11.3556 12.1129 12.137C12.8943 12.9185 13.3333 13.9783 13.3333 15.0833V15.9167H15Z" fill="#707070"/>
</svg>
